<?xml version="1.0" encoding="utf-8"?>
<!-- Generator: Adobe Illustrator 16.0.0, SVG Export Plug-In . SVG Version: 6.00 Build 0)  -->
<!DOCTYPE svg PUBLIC "-//W3C//DTD SVG 1.1//EN" "http://www.w3.org/Graphics/SVG/1.1/DTD/svg11.dtd">
<svg version="1.1" id="Layer_1" xmlns="http://www.w3.org/2000/svg" xmlns:xlink="http://www.w3.org/1999/xlink" x="0px" y="0px"
	 width="63.998px" height="70.137px" viewBox="0 0 63.998 70.137" enable-background="new 0 0 63.998 70.137" xml:space="preserve">
<g>
	<defs>
		<path id="SVGID_1_" d="M58.57,13.459L37.426,1.252c-2.891-1.67-7.964-1.67-10.855-0.001L5.427,13.458
			C2.535,15.127-0.002,19.522,0,22.861v24.414c0,3.34,2.536,7.732,5.429,9.402l21.143,12.207c2.891,1.67,7.964,1.67,10.856,0
			L58.57,56.677c2.891-1.67,5.428-6.063,5.428-9.402V22.862C63.998,19.521,61.463,15.129,58.57,13.459z"/>
	</defs>
	<clipPath id="SVGID_2_">
		<use xlink:href="#SVGID_1_"  overflow="visible"/>
	</clipPath>
	<g transform="matrix(1 0 0 1 3.762395e-009 3.910886e-007)" clip-path="url(#SVGID_2_)">
		
			<image overflow="visible" width="214" height="320" xlink:href="me.jpg"  transform="matrix(0.3777 0 0 0.3777 -2.3496 -25.4321)">
		</image>
	</g>
</g>
</svg>
