<?xml version="1.0" encoding="utf-8"?>
<!-- Generator: Adobe Illustrator 16.0.0, SVG Export Plug-In . SVG Version: 6.00 Build 0)  -->
<!DOCTYPE svg PUBLIC "-//W3C//DTD SVG 1.1//EN" "http://www.w3.org/Graphics/SVG/1.1/DTD/svg11.dtd">
<svg version="1.1" id="Layer_1" xmlns="http://www.w3.org/2000/svg" xmlns:xlink="http://www.w3.org/1999/xlink" x="0px" y="0px"
	 width="70px" height="76.129px" viewBox="0 0 70 76.129" enable-background="new 0 0 70 76.129" xml:space="preserve">
<path fill="#FFFFFF" d="M69.999,50.272L70,38.065l-0.001-12.208c0.001-4.4-3.117-9.8-6.928-12L52.5,7.754L41.927,1.65
	c-3.81-2.201-10.045-2.2-13.855,0L6.929,13.857c-3.81,2.2-6.929,7.6-6.929,12l0,12.208l0,12.208c0,4.399,3.117,9.798,6.927,11.998
	L17.5,68.375l10.571,6.104c3.811,2.2,10.046,2.2,13.857,0l21.143-12.207C66.882,60.072,70,54.673,69.999,50.272z M61.571,59.674
	L40.429,71.881c-2.892,1.67-7.965,1.669-10.856-0.001L8.428,59.673C5.536,58.004,3,53.61,3,50.271l0-24.415
	c0-3.339,2.537-7.732,5.428-9.401L29.572,4.248c2.892-1.669,7.964-1.67,10.856,0L61.57,16.456c2.893,1.669,5.429,6.063,5.429,9.402
	v24.414C67,53.61,64.463,58.005,61.571,59.674z"/>
</svg>
